<svg width="747" height="792" viewBox="0 0 747 792" fill="none" xmlns="http://www.w3.org/2000/svg">
<g opacity="0.2">
<path fill-rule="evenodd" clip-rule="evenodd" d="M206.348 38.0603C226.852 24.8766 249.729 15.8179 273.7 11.3914C267.529 12.5162 262.139 13.5786 257.53 14.5785C236.919 19.5005 216.744 26.0999 197.209 34.3107V34.4279L206.348 38.0603Z" fill="#499FDA"/>
<path fill-rule="evenodd" clip-rule="evenodd" d="M347.709 19.6853C353.474 9.74893 376.136 5.99934 404.562 8.20223C390.97 6.42117 378.948 5.06195 369.176 4.26516C362.637 3.86677 356.005 3.74959 349.303 3.74959C341.64 3.74959 334.047 3.93707 326.477 4.45264C316.799 5.24943 304.87 6.79613 291.864 8.50688C319.892 6.13995 342.694 9.74893 347.709 19.6853Z" fill="#499FDA"/>
<path fill-rule="evenodd" clip-rule="evenodd" d="M490.198 37.5901C488.042 32.3641 492.237 31.4033 499.994 33.8874H500.181C480.607 25.7592 460.411 19.2155 439.789 14.3192C434.798 13.1943 429.103 12.1398 422.541 10.968C446.64 15.2528 469.641 24.3035 490.198 37.5901Z" fill="#499FDA"/>
<path fill-rule="evenodd" clip-rule="evenodd" d="M50.343 166.787C65.3564 140.161 87.1981 118.02 113.617 102.646C94.2836 109.043 87.5577 106.302 95.01 97.3728C93.5571 98.6149 92.1041 99.9272 90.5574 101.216C77.5979 113.613 62.6229 128.846 50.4133 142.016C48.9369 143.751 47.4605 145.532 46.0544 147.242L50.343 166.787Z" fill="#499FDA"/>
<path fill-rule="evenodd" clip-rule="evenodd" d="M175.888 131.727C190.824 100.524 219.392 78.0166 253.224 70.7965C219.946 71.4527 199.323 60.4383 201.831 45.4165C182.426 67.8965 157.905 85.3854 130.331 96.4109C141.312 92.7421 153.399 94.7984 162.55 101.892C171.7 108.985 176.704 120.179 175.888 131.727Z" fill="#499FDA"/>
<path fill-rule="evenodd" clip-rule="evenodd" d="M347.64 119.212C357.319 88.1356 386.487 67.2892 419.023 68.1945C382.675 62.1718 353.71 44.7596 347.734 27.6287C341.875 44.8533 312.746 62.2889 276.445 68.4289C308.885 67.4577 337.997 88.2232 347.64 119.212Z" fill="#499FDA"/>
<path fill-rule="evenodd" clip-rule="evenodd" d="M519.724 131.445C518.937 119.732 524.047 108.4 533.347 101.237C542.647 94.0734 554.909 92.0251 566.032 95.7767C538.337 84.8396 513.718 67.3304 494.298 44.7588C496.43 59.7806 475.55 70.9825 442.131 70.3497C476.146 77.4177 504.874 100.037 519.724 131.445Z" fill="#499FDA"/>
<path fill-rule="evenodd" clip-rule="evenodd" d="M646.692 166.318C640.083 145.836 642.896 138.735 652.059 146.773C651.215 145.719 650.348 144.617 649.34 143.563C636.076 129.174 618.523 111.551 604.322 98.0286L601.58 95.6851C609.712 105.059 603.033 108.363 582.621 101.591C609.41 117.012 631.544 139.373 646.692 166.318Z" fill="#499FDA"/>
<path fill-rule="evenodd" clip-rule="evenodd" d="M19.1976 304.815C26.1138 271.209 48.147 242.674 78.9098 227.48C52.8267 227.714 39.8438 208.732 44.7885 181.735C34.0782 209.102 17.1308 233.592 -4.70605 253.259C9.44865 251.032 20.0647 271.561 19.1976 304.815Z" fill="#499FDA"/>
<path fill-rule="evenodd" clip-rule="evenodd" d="M158.991 291.598C168.154 251.34 199.506 219.851 239.724 210.514C205.081 210.121 176.279 183.731 172.864 149.255C160.57 184.292 133.117 211.908 98.1538 224.41C132.51 228.191 158.629 257.037 158.991 291.598Z" fill="#499FDA"/>
<path fill-rule="evenodd" clip-rule="evenodd" d="M347.146 286.821C354.567 245.863 387.744 214.48 429.051 209.345C390.036 203.757 358.017 175.628 347.451 137.657C336.751 175.571 304.761 203.651 265.78 209.345C306.971 214.504 339.976 245.932 347.146 286.821Z" fill="#499FDA"/>
<path fill-rule="evenodd" clip-rule="evenodd" d="M536.08 291.509C536.673 256.772 562.994 227.892 597.526 224.086C562.367 211.756 534.755 184.057 522.534 148.86C518.815 183.432 489.926 209.819 455.159 210.4C495.456 219.678 526.895 251.19 536.08 291.509Z" fill="#499FDA"/>
<path fill-rule="evenodd" clip-rule="evenodd" d="M677.325 304.937C676.598 271.402 687.566 250.708 702.142 252.794C679.955 233.343 662.791 208.823 652.109 181.318C655.746 192.3 653.746 204.369 646.761 213.591C639.776 222.814 628.701 228.009 617.144 227.484C648.182 242.507 670.437 271.149 677.325 304.937Z" fill="#499FDA"/>
<path fill-rule="evenodd" clip-rule="evenodd" d="M734.717 324.853C734.014 320.635 733.334 317.143 732.678 313.745C728.057 291.996 721.573 270.686 713.297 250.049C715.289 256.447 714.329 259.704 709.899 257.618C722.244 278.309 730.658 301.104 734.717 324.853Z" fill="#499FDA"/>
<path fill-rule="evenodd" clip-rule="evenodd" d="M17.4196 467.364C16.0012 435.351 36.1443 406.336 66.6329 396.473C36.2358 386.21 16.2111 357.174 17.4196 325.114C11.3733 361.251 -5.2889 389.841 -21.6699 396.333C-5.40607 402.356 11.2562 431.227 17.4196 467.364Z" fill="#499FDA"/>
<path fill-rule="evenodd" clip-rule="evenodd" d="M680.885 467.364C682.304 435.351 662.161 406.336 631.672 396.473C662.069 386.21 682.094 357.174 680.885 325.114C686.932 361.251 703.594 389.841 719.975 396.333C703.711 402.356 687.049 431.227 680.885 467.364Z" fill="#499FDA"/>
<path fill-rule="evenodd" clip-rule="evenodd" d="M157.909 477.698C163.05 436.685 194.222 403.757 234.892 396.379C194.162 388.995 162.969 355.979 157.909 314.896C152.272 353.665 124.486 385.557 86.8538 396.449C124.489 407.149 152.32 438.972 157.909 477.698Z" fill="#499FDA"/>
<path fill-rule="evenodd" clip-rule="evenodd" d="M347.196 481.375C354.921 438.006 388.872 404.055 432.242 396.33C388.872 388.621 354.917 354.675 347.196 311.308C339.394 354.616 305.521 388.527 262.221 396.377C305.556 404.11 339.476 438.038 347.196 481.375Z" fill="#499FDA"/>
<path fill-rule="evenodd" clip-rule="evenodd" d="M537.11 477.556C542.699 438.709 570.695 406.825 608.493 396.26C570.685 385.711 542.681 353.819 537.11 314.964C531.88 356.126 500.471 389.093 459.61 396.307C500.434 403.524 531.828 436.438 537.11 477.556Z" fill="#499FDA"/>
<path fill-rule="evenodd" clip-rule="evenodd" d="M737.174 451.613C738.44 441.606 739.635 432.303 740.408 423.749C741.041 414.516 741.369 405.142 741.369 395.627C741.369 386.112 741.041 377.254 740.455 368.138C739.729 360.076 738.627 350.491 737.362 340.602C739.705 368.278 736.589 391.01 727.543 396.025C736.495 401.228 739.518 423.89 737.174 451.613Z" fill="#499FDA"/>
<path fill-rule="evenodd" clip-rule="evenodd" d="M45.1423 610.454C40.1975 583.785 53.0633 564.779 79.0058 564.733C48.282 549.614 26.268 521.147 19.3639 487.608C20.1841 520.933 9.63837 541.204 -4.30542 539.165C17.4807 558.773 34.409 583.179 45.1423 610.454Z" fill="#499FDA"/>
<path fill-rule="evenodd" clip-rule="evenodd" d="M173.002 643.099C176.553 608.735 205.271 582.475 239.815 582.004C199.631 572.646 168.276 541.236 158.988 501.036C158.709 535.549 132.607 564.372 98.291 568.06C133.235 580.529 160.686 608.101 173.002 643.099Z" fill="#499FDA"/>
<path fill-rule="evenodd" clip-rule="evenodd" d="M347.451 654.724C358 616.836 389.955 588.771 428.887 583.201C387.688 578.033 354.61 546.72 347.193 505.865C339.997 546.643 307.094 577.989 266.015 583.201C304.873 588.931 336.753 616.93 347.451 654.724Z" fill="#499FDA"/>
<path fill-rule="evenodd" clip-rule="evenodd" d="M522.325 643.455C534.662 608.383 562.244 580.801 597.316 568.463C562.847 564.614 536.598 535.766 536.011 501.088C526.798 541.364 495.376 572.831 455.113 582.102C489.786 582.671 518.605 608.978 522.325 643.455Z" fill="#499FDA"/>
<path fill-rule="evenodd" clip-rule="evenodd" d="M651.898 610.763C662.658 583.32 679.811 558.84 701.932 539.357C687.402 541.443 676.411 521.078 677.231 487.425C670.318 521.262 647.997 549.928 616.886 564.924C643.438 564.854 656.491 584.118 651.898 610.763Z" fill="#499FDA"/>
<path fill-rule="evenodd" clip-rule="evenodd" d="M732.487 478.284C733.19 475.191 733.916 471.254 734.619 467.457C730.473 491.215 721.989 514.007 709.591 534.692C713.949 532.56 714.863 535.887 712.918 542.238V542.355C721.316 521.617 727.865 500.176 732.487 478.284Z" fill="#499FDA"/>
<path fill-rule="evenodd" clip-rule="evenodd" d="M95.0616 694.119C88.1483 685.706 94.8038 683.034 114.044 689.573C87.6181 674.16 65.7398 652.031 50.629 625.431C56.9564 644.742 54.6832 651.772 46.5981 644.906C61.2807 662.697 77.4975 679.165 95.0616 694.119Z" fill="#499FDA"/>
<path fill-rule="evenodd" clip-rule="evenodd" d="M201.76 746.427C199.65 731.71 220.086 720.649 253.316 721.469C219.485 714.249 190.917 691.741 175.981 660.538C176.83 672.097 171.817 683.309 162.637 690.385C153.458 697.461 141.339 699.454 130.377 695.69C157.91 706.607 182.398 724.013 201.76 746.427Z" fill="#499FDA"/>
<path fill-rule="evenodd" clip-rule="evenodd" d="M347.733 764.305C353.78 747.151 382.886 729.88 419.14 723.81C386.609 724.851 357.356 704.13 347.546 673.097C337.848 704.071 308.646 724.744 276.21 723.599C312.628 729.809 341.875 747.151 347.733 764.305Z" fill="#499FDA"/>
<path fill-rule="evenodd" clip-rule="evenodd" d="M494.086 747.128C513.484 724.668 538.055 707.263 565.679 696.415C554.597 700.088 542.415 698.019 533.167 690.894C523.918 683.769 518.811 672.517 519.536 660.864C504.62 692.198 475.899 714.745 441.919 721.795C475.408 721.162 496.242 732.247 494.086 747.128Z" fill="#499FDA"/>
<path fill-rule="evenodd" clip-rule="evenodd" d="M604.582 693.206C618.643 680.012 635.54 662.975 648.593 648.82C649.554 647.696 650.632 646.477 651.569 645.329C642.664 653.062 639.664 646.266 646.413 625.878C631.244 652.648 609.176 674.862 582.506 690.207C602.543 683.598 609.41 686.551 601.559 695.69L604.582 693.206Z" fill="#499FDA"/>
<path fill-rule="evenodd" clip-rule="evenodd" d="M258.26 777.147H258.378C262.947 778.202 268.267 779.256 274.102 780.358C249.996 775.908 226.975 766.844 206.305 753.666C208.649 758.657 204.758 759.595 197.705 757.368H197.541C217.196 765.637 237.506 772.253 258.26 777.147Z" fill="#499FDA"/>
<path fill-rule="evenodd" clip-rule="evenodd" d="M370.022 787.18C379.795 786.43 391.465 785.047 404.237 783.407C376.115 785.539 353.501 781.977 347.993 772.111C342.627 781.954 319.871 785.375 291.75 783.055C304.287 784.743 315.77 786.125 325.379 787.016C333.3 787.531 341.197 787.766 349.189 787.766C356.219 787.766 363.156 787.602 370.022 787.18Z" fill="#499FDA"/>
<path fill-rule="evenodd" clip-rule="evenodd" d="M499.43 757.911C491.931 760.255 487.713 759.388 490.056 754.232C469.513 767.354 446.587 776.305 422.587 780.573C428.657 779.518 434.093 778.44 438.663 777.456C459.43 772.652 479.757 766.114 499.43 757.911Z" fill="#499FDA"/>
</g>
</svg>
