<svg width="576" height="86" viewBox="0 0 576 86" fill="none" xmlns="http://www.w3.org/2000/svg">
<path d="M290.935 20.8256L281.596 52.8658L270.808 20.8252H258.457L274.743 61.8212C275.066 62.5139 275.249 63.2634 275.283 64.027C275.247 64.7425 275.029 65.4367 274.649 66.0438C273.095 69.0695 270.625 71.7297 268.521 73.1043C266.543 74.554 264.308 75.6129 261.935 76.2244L264.497 85.7616C267.332 85.3927 271.907 83.9266 276.297 79.9818C281.603 75.3976 285.721 67.9678 291.849 51.275L303.009 20.824H290.934" fill="white"/>
<path fill-rule="evenodd" clip-rule="evenodd" d="M75.6208 57.8801C68.4865 57.8801 62.1744 54.3957 61.8992 46.3241H91.7219C91.981 44.7478 92.1037 43.152 92.0886 41.5545C92.0886 31.7416 87.3308 19.8184 72.8774 19.8184C58.6058 19.8184 51.1055 31.4654 51.1055 43.8482C51.1055 57.5124 59.6126 66.4087 74.066 66.4087C80.4694 66.4087 85.7752 65.2171 89.6178 63.6579V55.3528C85.1266 56.9764 80.3948 57.8308 75.6208 57.8801ZM72.2359 27.5226C79.7378 27.5226 81.5664 34.3085 81.4743 38.4352H61.8973C62.3549 33.8518 65.282 27.5226 72.2359 27.5226Z" fill="white"/>
<path fill-rule="evenodd" clip-rule="evenodd" d="M139.722 66.5005C151.065 66.5005 162.591 59.1627 162.591 42.748C162.591 29.1737 153.718 19.8179 140.453 19.8179C127.006 19.8179 117.4 28.8064 117.4 43.4809C117.4 57.7877 127.097 66.5005 139.722 66.5005ZM140.087 58.3387C133.226 58.3387 129.018 51.826 129.018 43.2051C129.018 35.7758 132.22 28.0735 140.179 28.0735C147.864 28.0735 150.974 36.0515 150.974 43.0209C150.974 52.0095 146.491 58.3387 140.087 58.3387Z" fill="white"/>
<path d="M203.433 64.1164C201.054 65.2169 196.389 66.4085 190.809 66.4085C176.903 66.4085 167.848 57.5122 167.848 43.665C167.848 30.274 176.995 19.8169 192.639 19.8169C196.755 19.8169 200.963 20.7332 203.525 21.9272L201.513 30.3647C198.84 29.1597 195.934 28.5644 193.004 28.6216C184.406 28.6216 179.283 34.9509 179.374 43.1123C179.374 52.2843 185.321 57.511 193.004 57.511C196.051 57.5524 199.072 56.9596 201.878 55.77L203.433 64.1148" fill="white"/>
<path fill-rule="evenodd" clip-rule="evenodd" d="M215.815 14.4072C219.749 14.4072 222.218 11.7479 222.218 8.35327H222.219C222.127 4.86757 219.75 2.20825 215.907 2.20825C212.157 2.20825 209.596 4.86757 209.596 8.35327C209.596 11.7479 212.064 14.4072 215.815 14.4072ZM210.236 20.8255V65.4918H221.578V20.8255H210.236Z" fill="white"/>
<path d="M255.639 29.2651V20.8255H244.937V8.07837L233.959 10.7361V20.8255H227.556V29.2651H233.958V50.2664C233.958 56.1373 235.055 60.1749 237.433 62.7402C239.538 65.0335 243.014 66.4081 247.131 66.4081C250.698 66.4081 253.625 65.9522 255.273 65.3085L255.09 56.6883C253.657 57.0669 252.18 57.2519 250.699 57.2386C246.399 57.2386 244.936 54.3954 244.936 48.9821V29.2639H255.638" fill="white"/>
<path d="M348.256 40.2636H362.528V61.1038C360.695 62.0318 357.114 63.0557 350.247 63.0557C342.401 63.0557 335.873 60.5612 331.368 55.841C326.827 51.0831 324.427 44.151 324.427 35.7932C324.427 27.6667 326.901 20.8188 331.581 15.9896C336.311 11.1099 343.082 8.53114 351.161 8.53114C356.326 8.53114 360.427 9.35591 364.065 11.1277L364.657 11.416L366.587 6.69861L366.074 6.44231C363.275 5.04018 357.663 3.62549 351.436 3.62549C328.766 3.62549 318.617 19.8742 318.617 35.9763C318.617 45.7187 321.788 54.3721 327.313 59.7158C333.096 65.3438 340.15 67.9626 349.515 67.9626C358.669 67.9626 365.333 65.6207 367.772 64.6138L368.155 64.4555V35.4491H348.257V40.2624" fill="white"/>
<path d="M381.095 67.3203H386.722V0.87207H381.095V67.3203Z" fill="white"/>
<path fill-rule="evenodd" clip-rule="evenodd" d="M402.844 27.2929C406.755 23.2579 412.142 21.0028 417.754 21.0516C430.322 21.0516 438.77 30.4037 438.77 44.3226C438.77 60.8167 427.592 68.3294 417.205 68.3294H417.113C404.9 68.3294 396.371 58.7598 396.371 45.0583C396.371 37.8221 398.606 31.6791 402.844 27.2929ZM417.388 63.4233C426.37 63.4233 433.143 55.2911 433.143 44.5064C433.143 37.0499 429.019 25.9563 417.663 25.9547C409.865 25.9547 401.993 31.7774 401.993 44.7821C401.993 55.4093 408.573 63.4233 417.296 63.4233H417.388Z" fill="white"/>
<path fill-rule="evenodd" clip-rule="evenodd" d="M454.375 28.9549C457.714 23.8412 463.206 21.0511 470.039 21.0511L470.041 21.0515C481.445 21.0515 489.409 30.5842 489.409 44.229C489.409 51.6357 487.212 57.8771 483.055 62.2774C479.461 66.105 474.461 68.2913 469.217 68.3281C462.605 68.3281 457.629 65.8822 454.065 60.8615L453.957 67.3204H448.747V0.870117H454.375V28.9549ZM468.575 63.4221C477.815 63.4221 483.781 55.9251 483.781 44.3226C483.781 35.4769 479.139 25.9567 468.941 25.9567C462.479 25.9567 456.836 30.4943 454.898 37.2479C454.563 38.4471 454.388 39.6852 454.376 40.9304V49.7343C454.366 50.7645 454.481 51.792 454.72 52.7941C456.567 59.242 462.011 63.4221 468.575 63.4221Z" fill="white"/>
<path d="M539.431 67.3203H545.058V0.87207H539.431V67.3203Z" fill="white"/>
<path fill-rule="evenodd" clip-rule="evenodd" d="M527.858 39.0039V56.2457L527.859 56.2453C527.795 59.709 528.005 63.1722 528.489 66.6024L528.607 67.3203H523.298L522.742 61.8336C519.37 65.9941 514.289 68.3853 508.942 68.3285C499.659 68.3285 495.432 61.7328 495.432 55.6052C495.432 51.513 496.805 48.0742 499.513 45.3854C503.891 41.0409 511.473 38.8403 522.053 38.8403H522.231V38.2682C522.231 33.778 521.224 30.5959 519.157 28.5407C517.433 26.8252 514.94 25.9555 511.758 25.9555C507.671 25.9413 503.794 27.0616 500.886 29.1432L500.262 29.5885L498.383 25.1959L498.813 24.9125C502.779 22.4062 507.367 21.0682 512.055 21.051C522.393 21.051 527.858 27.2588 527.858 39.0039ZM522.232 43.7342C521.747 43.7245 521.268 43.7197 520.794 43.7197C512.637 43.7197 506.95 45.2319 503.881 48.2224C502.125 49.9307 501.237 52.1689 501.237 54.8703C501.237 61.1769 505.453 63.4236 509.4 63.4236C516.449 63.4236 520.433 59.0925 521.806 55.0388C522.099 54.2524 522.244 53.4181 522.232 52.5787V43.7342Z" fill="white"/>
<path d="M20.331 65.492L0.387695 3.67578H12.6458L21.0624 31.7412C23.4415 39.5377 25.4535 46.7833 27.1008 54.3045H27.2829C28.9294 46.9675 31.1255 39.445 33.5959 31.925L42.5614 3.67619H54.5448L33.2296 65.492H20.331Z" fill="white"/>
<path d="M99.2695 1.51636H110.612V65.4919H99.2695V1.51636Z" fill="white"/>
<path fill-rule="evenodd" clip-rule="evenodd" d="M573.132 3.52598C571.394 1.79509 569.035 0.838279 566.586 0.871316H566.527C564.071 0.835844 561.704 1.78978 559.956 3.51932C558.208 5.24885 557.225 7.60933 557.228 10.0717C557.21 12.5496 558.184 14.9311 559.932 16.6831C561.68 18.435 564.056 19.4111 566.527 19.3927C569.001 19.4209 571.382 18.4478 573.131 16.6935C574.88 14.9392 575.85 12.552 575.821 10.0717C575.838 7.61611 574.869 5.25688 573.132 3.52598ZM566.462 2.49451C562.327 2.49451 559.15 5.9219 559.15 10.0712C559.15 14.3408 562.327 17.7087 566.586 17.7087C570.722 17.7686 573.845 14.3412 573.845 10.132C573.845 5.92271 570.722 2.49451 566.527 2.49451H566.462ZM563.167 15.1826H564.847V11.0948H565.983C567.366 11.0948 568.023 11.5758 568.266 12.6581C568.503 13.9813 568.745 14.8227 569.041 15.1834H570.78C570.544 14.8227 570.366 14.2214 570.064 12.7784C569.763 11.5155 569.343 10.7333 568.444 10.4332V10.3118C569.461 9.95102 570.366 9.2295 570.366 8.02657C570.392 7.22916 570.033 6.468 569.402 5.98228C568.745 5.50127 567.964 5.20044 566.344 5.20044C565.277 5.19348 564.213 5.29427 563.167 5.50127V15.1826ZM566.042 9.71045H564.847V6.70536C565.301 6.61765 565.763 6.57694 566.225 6.58389C567.964 6.58389 568.562 7.24507 568.562 8.20709C568.562 9.34969 567.367 9.71045 566.042 9.71045Z" fill="white"/>
</svg>
