<svg xmlns="http://www.w3.org/2000/svg" width="1024" height="179" viewBox="0 0 1024 179">
    <g fill="none">
        <path fill="#499FDA" d="M171.669 86.642l-10.532 10.945c-3.644 32.566-28.73 58.61-61.134 63.47-3.52.524-7.075.788-10.634.79-3.61 0-7.213-.273-10.78-.82-.212-.034-.388-.183-.456-.387-.068-.205-.017-.43.133-.585l58.993-61.268 22.848-23.706 13.792-14.376 19.05-21.121c.261-.29.263-.73.006-1.023-.258-.293-.694-.347-1.015-.127l-21.06 14.62-14.135 10.67-110.567 83.747-14.101 10.67c1.372 1.167 2.779 2.265 4.22 3.328 3.13 2.341 6.42 4.462 9.845 6.347C59.358 175.177 74.24 179.028 89.368 179c49.298 0 89.367-40.071 89.367-89.338.009-3.28-.174-6.555-.548-9.813l-6.518 6.793zm-9.228-48.34l-14.684 8.922c-.514-.72-1.063-1.441-1.612-2.161-13.678-17.44-34.613-27.624-56.776-27.619-39.796 0-72.213 32.387-72.213 72.218-.004 3.458.242 6.911.736 10.334.045.296.224.556.485.703.262.147.576.165.853.05l110.613-44.627c.198-.078.422.007.518.196.096.19.032.42-.147.534l-105.308 65.3-14.648 8.954c-1.518-2.795-2.858-5.683-4.014-8.646C2.112 112.02-.006 100.89 0 89.662 0 40.36 40.104.288 89.369.288c28.974.006 56.142 14.078 72.865 37.74.077.085.146.177.207.274"/>
        <path fill="#000" d="M627.94 70.403l-12.975 44.404-14.988-44.404h-17.16l22.627 56.815c.448.96.703 1.999.75 3.057-.05.991-.353 1.954-.88 2.795-2.159 4.193-5.591 7.88-8.515 9.785-2.748 2.01-5.853 3.477-9.15 4.324l3.56 13.217c3.939-.51 10.295-2.543 16.394-8.01 7.372-6.353 13.093-16.65 21.607-39.784l15.506-42.201h-16.777M336.922 94.808c.128-5.72-2.413-15.124-12.836-15.124-9.661 0-13.728 8.772-14.364 15.124h27.2zm-27.197 10.932c.382 11.187 9.152 16.016 19.064 16.016 6.633-.068 13.207-1.252 19.447-3.503v11.51c-5.339 2.161-12.71 3.813-21.607 3.813-20.081 0-31.9-12.33-31.9-31.267 0-17.16 10.42-33.302 30.249-33.302 20.08 0 26.691 16.524 26.691 30.124.021 2.214-.15 4.425-.51 6.61h-41.434M402.98 101.418c0 11.948 5.846 20.974 15.378 20.974 8.897 0 15.125-8.772 15.125-21.229 0-9.659-4.32-20.715-14.997-20.715-11.06 0-15.507 10.674-15.507 20.97zm46.644-.633c0 22.749-16.014 32.918-31.774 32.918-17.54 0-31.013-12.075-31.013-31.903 0-20.336 13.346-32.794 32.028-32.794 18.43 0 30.76 12.966 30.76 31.779M506.367 130.399c-3.305 1.525-9.786 3.177-17.54 3.177-19.32 0-31.9-12.33-31.9-31.52 0-18.558 12.709-33.05 34.443-33.05 5.719 0 11.565 1.27 15.125 2.924L503.7 83.623c-3.714-1.67-7.751-2.495-11.822-2.415-11.947 0-19.064 8.771-18.938 20.082 0 12.711 8.263 19.955 18.938 19.955 4.232.057 8.43-.764 12.329-2.413l2.16 11.565M515.819 132.305V70.403h15.76v61.902h-15.76zm16.649-79.187c0 4.705-3.431 8.39-8.897 8.39-5.212 0-8.641-3.685-8.641-8.39 0-4.83 3.558-8.516 8.77-8.516 5.338 0 8.64 3.685 8.769 8.516M578.9 82.1V70.402h-14.868V52.737l-15.253 3.683v13.983h-8.896V82.1h8.895v29.105c0 8.137 1.524 13.732 4.828 17.288 2.925 3.178 7.754 5.083 13.475 5.083 4.956 0 9.023-.632 11.312-1.524l-.254-11.946c-1.991.524-4.043.78-6.102.762-5.974 0-8.006-3.94-8.006-11.442V82.098H578.9M707.58 97.342h19.83v28.882c-2.548 1.286-7.523 2.705-17.064 2.705-10.9 0-19.97-3.457-26.229-9.999-6.31-6.594-9.644-16.2-9.644-27.784 0-11.262 3.438-20.752 9.94-27.445 6.571-6.763 15.978-10.337 27.204-10.337 7.175 0 12.873 1.143 17.928 3.599l.822.4 2.682-6.538-.712-.355c-3.89-1.944-11.686-3.904-20.338-3.904-31.498 0-45.598 22.518-45.598 44.834 0 13.502 4.405 25.494 12.082 32.9 8.035 7.8 17.836 11.43 30.847 11.43 12.718 0 21.976-3.246 25.366-4.642l.53-.22V90.67h-27.645v6.671M753.206 134.839L761.023 134.839 761.023 42.75 753.206 42.75 753.206 134.839M825.52 103.222c0 14.946-9.412 26.216-21.89 26.216h-.128c-12.12 0-21.261-11.106-21.261-25.834 0-18.023 10.937-26.093 21.77-26.093 15.778.003 21.509 15.377 21.509 25.71zm-21.382-32.506c-7.797-.067-15.282 3.058-20.716 8.65-5.887 6.079-8.992 14.592-8.992 24.62 0 18.99 11.85 32.252 28.817 32.252h.128c14.431 0 29.962-10.412 29.962-33.27 0-19.29-11.738-32.252-29.2-32.252M895.874 102.967c0 16.08-8.29 26.47-21.127 26.47-9.12 0-16.683-5.793-19.25-14.73-.331-1.388-.492-2.812-.478-4.24V98.266c.017-1.726.26-3.442.725-5.104 2.693-9.36 10.534-15.648 19.511-15.648 14.17 0 20.619 13.194 20.619 25.453zM876.78 70.716c-9.493 0-17.124 3.866-21.763 10.953V42.747h-7.82v92.092h7.239l.15-8.95c4.952 6.957 11.865 10.347 21.052 10.347 7.285-.051 14.232-3.081 19.226-8.386 5.776-6.098 8.828-14.748 8.828-25.013 0-18.91-11.065-32.12-26.91-32.12M973.192 134.839L981.01 134.839 981.01 42.75 973.192 42.75 973.192 134.839M947.298 102.132c.659 0 1.324.006 1.998.02v12.257c.016 1.163-.184 2.32-.591 3.41-1.908 5.617-7.444 11.62-17.237 11.62-5.484 0-11.341-3.114-11.341-11.854 0-3.744 1.234-6.846 3.673-9.213 4.264-4.145 12.165-6.24 23.499-6.24zm9.815 17.36V95.595c0-16.277-7.593-24.88-21.957-24.88-6.513.023-12.887 1.878-18.397 5.351l-.598.393 2.61 6.088.869-.618c4.04-2.884 9.426-4.437 15.104-4.417 4.422 0 7.885 1.205 10.28 3.582 2.872 2.849 4.271 7.259 4.271 13.482v.792h-.247c-14.7 0-25.234 3.05-31.316 9.071-3.763 3.727-5.671 8.492-5.671 14.163 0 8.493 5.873 17.633 18.77 17.633 7.43.08 14.489-3.235 19.174-9l.772 7.603h7.377l-.165-.995c-.671-4.754-.964-9.553-.875-14.353M251.972 132.305l-27.709-85.67h17.031l11.694 38.896c3.305 10.805 6.1 20.846 8.39 31.27h.253c2.287-10.169 5.338-20.594 8.77-31.016l12.457-39.15h16.65l-29.615 85.67h-17.921M361.647 43.643L377.406 43.643 377.406 132.305 361.647 132.305 361.647 43.643M1008.504 54.999h1.66c1.84 0 3.502-.5 3.502-2.083 0-1.334-.83-2.25-3.247-2.25-.643-.01-1.284.047-1.915.168V55zm0 7.584h-2.335V49.166c1.454-.287 2.933-.427 4.415-.417 2.251 0 3.336.417 4.249 1.083.877.673 1.376 1.728 1.34 2.833 0 1.667-1.258 2.667-2.672 3.167v.169c1.25.415 1.833 1.5 2.252 3.25.42 2 .666 2.833.995 3.333h-2.417c-.411-.5-.748-1.666-1.077-3.5-.337-1.5-1.25-2.166-3.172-2.166h-1.578v5.665zm2.244-17.584c-5.746 0-10.16 4.75-10.16 10.5 0 5.917 4.415 10.585 10.332 10.585 5.746.083 10.085-4.667 10.085-10.5 0-5.834-4.34-10.585-10.167-10.585h-.09zm.172-2.25c3.403-.046 6.68 1.28 9.095 3.679 2.414 2.399 3.76 5.668 3.736 9.072.04 3.437-1.307 6.745-3.737 9.177-2.43 2.43-5.738 3.78-9.176 3.74-3.433.026-6.734-1.327-9.163-3.755-2.428-2.428-3.782-5.728-3.757-9.162-.004-3.413 1.362-6.684 3.79-9.081 2.43-2.397 5.718-3.72 9.13-3.67h.083"/>
    </g>
</svg>
