<svg xmlns="http://www.w3.org/2000/svg" xmlns:xlink="http://www.w3.org/1999/xlink" width="58" height="186" viewBox="0 0 58 186">
    <defs>
        <filter id="cyw6jhx52a" width="171.1%" height="116.4%" x="-35.5%" y="-8.2%" filterUnits="objectBoundingBox">
            <feOffset dx="-3" in="SourceAlpha" result="shadowOffsetOuter1"/>
            <feGaussianBlur in="shadowOffsetOuter1" result="shadowBlurOuter1" stdDeviation="2"/>
            <feColorMatrix in="shadowBlurOuter1" result="shadowMatrixOuter1" values="0 0 0 0 0 0 0 0 0 0 0 0 0 0 0 0 0 0 0.3 0"/>
            <feMerge>
                <feMergeNode in="shadowMatrixOuter1"/>
                <feMergeNode in="SourceGraphic"/>
            </feMerge>
        </filter>
        <path id="av4377iwyb" d="M38 165.007c-5.108-2.448-9.118-7.611-9.117-13.276v-13.158c-.455-1.998-1.468-3.825-2.92-5.27-2.04-2.05-4.814-3.2-7.707-3.193C6.086 127.082 0 118.603 0 104.673V61.068c0-13.93 6.129-22.408 18.387-25.436 2.847-.027 5.568-1.174 7.576-3.193 1.452-1.445 2.464-3.272 2.92-5.269V14.01C28.882 8.346 32.892 3.183 38 .736v164.272z"/>
    </defs>
    <g fill="none" fill-rule="evenodd">
        <g filter="url(#cyw6jhx52a)" transform="translate(10 10.507)">
            <use fill="#B62070" fill-rule="nonzero" xlink:href="#av4377iwyb"/>
        </g>
        <g fill="#000" fill-opacity="0">
            <path d="M7.575 35.593L7.575 33.401 17.578 33.401 17.578 35.593z" transform="translate(10 10.507) translate(6.358 63.73)"/>
            <path stroke="#FFF" stroke-linecap="round" stroke-linejoin="round" stroke-width="1.5" d="M7.575 35.593L7.575 33.401 17.578 33.401 17.578 35.593z" transform="translate(10 10.507) translate(6.358 63.73)"/>
            <path d="M7.575 33.338L7.575 31.146 17.578 31.146 17.578 33.338z" transform="translate(10 10.507) translate(6.358 63.73)"/>
            <path stroke="#FFF" stroke-linecap="round" stroke-linejoin="round" stroke-width="1.5" d="M7.575 33.338L7.575 31.146 17.578 31.146 17.578 33.338z" transform="translate(10 10.507) translate(6.358 63.73)"/>
            <path d="M17.575 35.593L17.575 36.006 17.516 36.364 17.335 36.719 17.096 37.013 16.74 37.193 12.989 38.435 12.571 38.493 12.156 38.435 8.403 37.193 8.046 37.013 7.808 36.719 7.629 36.364 7.568 36.006 7.568 35.593z" transform="translate(10 10.507) translate(6.358 63.73)"/>
            <path stroke="#FFF" stroke-linecap="round" stroke-linejoin="round" stroke-width="1.5" d="M17.575 35.593L17.575 36.006 17.516 36.364 17.335 36.719 17.096 37.013 16.74 37.193 12.989 38.435 12.571 38.493 12.156 38.435 8.403 37.193 8.046 37.013 7.808 36.719 7.629 36.364 7.568 36.006 7.568 35.593z" transform="translate(10 10.507) translate(6.358 63.73)"/>
            <path d="M15.007 29.391L15.007 29.391 17.031 20.091 18.462 13.162" transform="translate(10 10.507) translate(6.358 63.73)"/>
            <path stroke="#FFF" stroke-linecap="round" stroke-linejoin="round" stroke-width="1.5" d="M15.007 29.391L15.007 29.391 17.031 20.091 18.462 13.162" transform="translate(10 10.507) translate(6.358 63.73)"/>
            <path d="M7.757 28.781L7.757 28.781 7.47 27.542 7.072 26.36 6.613 25.234 6.097 24.219 5.523 23.265 4.95 22.311 3.688 20.51 3.057 19.608 2.485 18.708 1.967 17.806 1.451 16.794 1.054 15.779 0.767 14.652 0.595 13.47 0.539 12.85 0.48 12.23 0.595 10.991 0.767 9.809 1.054 8.68 1.451 7.612 1.967 6.541 2.542 5.587 3.288 4.685 4.032 3.841 4.893 3.052 5.809 2.377 6.842 1.812 7.875 1.306 8.965 0.909 10.168 0.571 11.315 0.402 12.577 0.347 13.839 0.402 14.985 0.571 16.188 0.909 17.278 1.306 18.311 1.812 19.344 2.377 20.262 3.052 21.121 3.841 21.867 4.685 22.611 5.587 23.186 6.541 23.702 7.612 24.099 8.68 24.386 9.809 24.557 10.991 24.673 12.23 24.616 12.85 24.557 13.47 24.386 14.652 24.099 15.779 23.702 16.794 23.186 17.806 22.67 18.708 22.095 19.608 21.464 20.51 20.202 22.311 19.63 23.265 19.055 24.219 18.54 25.234 18.081 26.36 17.684 27.542 17.397 28.781" transform="translate(10 10.507) translate(6.358 63.73)"/>
            <path stroke="#FFF" stroke-linecap="round" stroke-linejoin="round" stroke-width="1.5" d="M7.757 28.781L7.757 28.781 7.47 27.542 7.072 26.36 6.613 25.234 6.097 24.219 5.523 23.265 4.95 22.311 3.688 20.51 3.057 19.608 2.485 18.708 1.967 17.806 1.451 16.794 1.054 15.779 0.767 14.652 0.595 13.47 0.539 12.85 0.48 12.23 0.595 10.991 0.767 9.809 1.054 8.68 1.451 7.612 1.967 6.541 2.542 5.587 3.288 4.685 4.032 3.841 4.893 3.052 5.809 2.377 6.842 1.812 7.875 1.306 8.965 0.909 10.168 0.571 11.315 0.402 12.577 0.347 13.839 0.402 14.985 0.571 16.188 0.909 17.278 1.306 18.311 1.812 19.344 2.377 20.262 3.052 21.121 3.841 21.867 4.685 22.611 5.587 23.186 6.541 23.702 7.612 24.099 8.68 24.386 9.809 24.557 10.991 24.673 12.23 24.616 12.85 24.557 13.47 24.386 14.652 24.099 15.779 23.702 16.794 23.186 17.806 22.67 18.708 22.095 19.608 21.464 20.51 20.202 22.311 19.63 23.265 19.055 24.219 18.54 25.234 18.081 26.36 17.684 27.542 17.397 28.781" transform="translate(10 10.507) translate(6.358 63.73)"/>
            <path d="M6.688 13.166L6.688 13.166 8.118 20.095 10.142 29.395" transform="translate(10 10.507) translate(6.358 63.73)"/>
            <path stroke="#FFF" stroke-linecap="round" stroke-linejoin="round" stroke-width="1.5" d="M6.688 13.166L6.688 13.166 8.118 20.095 10.142 29.395" transform="translate(10 10.507) translate(6.358 63.73)"/>
            <path d="M16.979 13.096L14.955 14.815 12.93 13.096 12.752 12.979 12.573 12.919 12.395 12.979 12.216 13.096 10.192 14.815 8.168 13.096" transform="translate(10 10.507) translate(6.358 63.73)"/>
            <path stroke="#FFF" stroke-linecap="round" stroke-linejoin="round" stroke-width="1.5" d="M16.979 13.096L14.955 14.815 12.93 13.096 12.752 12.979 12.573 12.919 12.395 12.979 12.216 13.096 10.192 14.815 8.168 13.096" transform="translate(10 10.507) translate(6.358 63.73)"/>
            <path d="M17.575 29.37L7.575 29.37" transform="translate(10 10.507) translate(6.358 63.73)"/>
            <path stroke="#FFF" stroke-linecap="round" stroke-linejoin="round" stroke-width="1.5" d="M17.575 29.37L7.575 29.37" transform="translate(10 10.507) translate(6.358 63.73)"/>
        </g>
    </g>
</svg>
