<svg width="24" height="18" viewBox="0 0 24 18" fill="none" xmlns="http://www.w3.org/2000/svg">
<path fill-rule="evenodd" clip-rule="evenodd" d="M9.58477 15.2831L16.9873 7.59259L19.8542 4.6169L21.5848 2.81246L23.9753 0.161256C24.008 0.124791 24.0083 0.0696493 23.9759 0.0328672C23.9436 -0.00391501 23.8889 -0.0107265 23.8486 0.0170077L21.206 1.85216L19.4324 3.19146L5.55844 13.7035L3.78899 15.0427C3.96114 15.1892 4.13772 15.3271 4.31845 15.4605C4.71132 15.7544 5.12415 16.0206 5.55394 16.2572C6.2717 16.6571 7.02863 16.9745 7.81027 17.2056L9.58477 15.2831ZM2.17655 7.83872L16.0563 2.23718C16.0811 2.22733 16.1092 2.23798 16.1213 2.26175C16.1334 2.28552 16.1253 2.31457 16.1028 2.32875L2.88885 10.5253L1.05075 11.6493C0.860334 11.2984 0.692109 10.9359 0.547064 10.564C0.312622 9.97146 0.129835 9.36125 0 8.74021L2.17655 7.83872Z" fill="#499FDA"/>
</svg>
