<svg width="11" height="10" viewBox="0 0 11 10" fill="none" xmlns="http://www.w3.org/2000/svg">
<path d="M9.875 1.75V4H9.625V2H1.375V4H1.125V1.75H9.875Z" fill="#B3B3B3" stroke="#B3B3B3" stroke-width="0.6" stroke-linecap="round" stroke-linejoin="round"/>
<path d="M3.65105 1L3.68947 1.02195L3.72168 1.04282L3.80314 1.07335L3.91573 1.20083L3.9504 1.26315L3.95811 1.29281L3.98616 1.35726L4 1.42377V2.57692L3.98616 2.64343L3.96489 2.68938L3.9504 2.73754L3.91573 2.79986L3.80314 2.92734L3.76422 2.94193L3.74487 2.94709L3.65074 3H3.46502V2.66667H3.56533L3.60471 2.64573L3.60833 2.64433L3.64233 2.60533L3.65246 2.57487L3.66667 2.54167V1.45733L3.64568 1.40732L3.64167 1.394L3.60633 1.354L3.58052 1.3436L3.56267 1.33333H3.421L3.37733 1.35633L3.37233 1.36167L3.33733 1.42133L3.33333 1.44033V1.48753H3V1.42377L3.00373 1.38871L3.0176 1.32426L3.03731 1.27408L3.09322 1.17912L3.11311 1.15178L3.18358 1.07313L3.22191 1.05876L3.24025 1.05418L3.33508 1H3.65105Z" fill="#B3B3B3" stroke="#B3B3B3" stroke-width="0.3" stroke-linecap="round" stroke-linejoin="round"/>
<path d="M7.65103 1L7.68945 1.02194L7.72166 1.0428L7.80312 1.07331L7.9157 1.20075L7.9504 1.26308L7.9581 1.29271L7.98615 1.35713L8 1.42366V2.57634L7.98615 2.64287L7.96488 2.68878L7.9504 2.73692L7.9157 2.79925L7.80312 2.92669L7.7642 2.94127L7.74585 2.94585L7.65103 3H7.46471V2.66667H7.56433L7.60474 2.64505L7.60833 2.64367L7.64233 2.60467L7.65247 2.57423L7.66667 2.541V1.45733L7.64569 1.40726L7.64167 1.394L7.60633 1.354L7.58055 1.34361L7.56267 1.33333H7.421L7.38139 1.35495L7.37567 1.35667L7.33733 1.42133L7.33333 1.44033V1.48739H7V1.42366L7.00373 1.38858L7.0176 1.32416L7.03733 1.27398L7.06599 1.22583L7.11296 1.1526L7.18301 1.07331L7.22193 1.05873L7.24028 1.05415L7.3351 1H7.65103Z" fill="#B3B3B3" stroke="#B3B3B3" stroke-width="0.3" stroke-linecap="round" stroke-linejoin="round"/>
<path fill-rule="evenodd" clip-rule="evenodd" d="M1.125 4H9.875V8.87066L9.87139 8.89677L9.8588 8.94156L9.84911 8.96456L9.81123 9.02657L9.73445 9.11618L9.69845 9.14464L9.62565 9.18242L9.53144 9.2224L9.45426 9.24455L9.4153 9.25H1.5847L1.54574 9.24455L1.45153 9.21626L1.37435 9.18242L1.3522 9.17L1.28761 9.12472L1.25847 9.09548L1.18154 8.98337L1.17006 8.96164L1.13879 8.87414L1.125 8.78035V4ZM9.62499 8.85691V4.21875H1.37499L1.37378 8.76518L1.38109 8.82423L1.40249 8.88053L1.46124 8.96606L1.49999 8.99319L1.54648 9.01455L1.60524 9.03125H9.39599L9.43646 9.02069L9.50542 8.99079L9.54874 8.96803L9.57299 8.93968L9.59971 8.91162L9.61949 8.87681L9.62499 8.85691Z" fill="#B3B3B3"/>
<path d="M9.875 4H10.175C10.175 3.83431 10.0407 3.7 9.875 3.7V4ZM1.125 4V3.7C0.959315 3.7 0.825 3.83431 0.825 4H1.125ZM9.875 8.87066L10.1722 8.91179C10.1741 8.89816 10.175 8.88442 10.175 8.87066H9.875ZM9.87139 8.89677L10.1602 8.9779C10.1639 8.96477 10.1667 8.95141 10.1686 8.9379L9.87139 8.89677ZM9.8588 8.94156L10.1353 9.05808C10.1401 9.04655 10.1442 9.03473 10.1476 9.02269L9.8588 8.94156ZM9.84911 8.96456L10.1051 9.12095C10.1129 9.10819 10.1197 9.09486 10.1256 9.08108L9.84911 8.96456ZM9.81123 9.02657L10.039 9.22176C10.0495 9.2096 10.0589 9.19662 10.0672 9.18296L9.81123 9.02657ZM9.73445 9.11618L9.9205 9.35152C9.93568 9.33952 9.94967 9.32607 9.96226 9.31138L9.73445 9.11618ZM9.69845 9.14464L9.83663 9.41092C9.85354 9.40215 9.86957 9.39179 9.8845 9.37998L9.69845 9.14464ZM9.62565 9.18242L9.74284 9.45858C9.74996 9.45556 9.75696 9.45226 9.76383 9.4487L9.62565 9.18242ZM9.53144 9.2224L9.61421 9.51075C9.62592 9.50739 9.63741 9.50332 9.64863 9.49856L9.53144 9.2224ZM9.45426 9.24455L9.49582 9.54166C9.50974 9.53971 9.52352 9.53679 9.53704 9.53291L9.45426 9.24455ZM9.4153 9.25V9.55C9.4292 9.55 9.44309 9.54903 9.45685 9.54711L9.4153 9.25ZM1.5847 9.25L1.54315 9.54711C1.55691 9.54903 1.5708 9.55 1.5847 9.55V9.25ZM1.54574 9.24455L1.45945 9.53187C1.47409 9.53627 1.48904 9.53954 1.50418 9.54166L1.54574 9.24455ZM1.45153 9.21626L1.33106 9.49101C1.34219 9.49589 1.3536 9.50009 1.36524 9.50358L1.45153 9.21626ZM1.37435 9.18242L1.22761 9.44408C1.23615 9.44887 1.24492 9.45324 1.25389 9.45717L1.37435 9.18242ZM1.3522 9.17L1.17999 9.41565C1.18821 9.42141 1.19671 9.42675 1.20546 9.43166L1.3522 9.17ZM1.28761 9.12472L1.0751 9.33648C1.08752 9.34893 1.101 9.36028 1.1154 9.37037L1.28761 9.12472ZM1.25847 9.09548L1.01111 9.26522C1.02143 9.28026 1.0331 9.29432 1.04597 9.30724L1.25847 9.09548ZM1.18154 8.98337L0.916278 9.1235C0.921671 9.1337 0.927648 9.14359 0.934181 9.15311L1.18154 8.98337ZM1.17006 8.96164L0.887562 9.0626C0.892368 9.07605 0.898127 9.08913 0.904796 9.10176L1.17006 8.96164ZM1.13879 8.87414L0.841981 8.91778C0.844853 8.93731 0.849646 8.95652 0.856291 8.97511L1.13879 8.87414ZM1.125 8.78035H0.825C0.825 8.79495 0.826066 8.80954 0.828191 8.82398L1.125 8.78035ZM9.62499 4.21875H9.92499C9.92499 4.05306 9.79067 3.91875 9.62499 3.91875V4.21875ZM9.62499 8.85691L9.91415 8.9368C9.92134 8.91078 9.92499 8.8839 9.92499 8.85691H9.62499ZM1.37499 4.21875V3.91875C1.20933 3.91875 1.07503 4.05302 1.07499 4.21867L1.37499 4.21875ZM1.37378 8.76518L1.07378 8.7651C1.07378 8.77746 1.07454 8.7898 1.07606 8.80206L1.37378 8.76518ZM1.38109 8.82423L1.08337 8.86111C1.08632 8.88495 1.09213 8.90834 1.10066 8.93078L1.38109 8.82423ZM1.40249 8.88053L1.12205 8.98709C1.13054 9.00943 1.14167 9.03068 1.1552 9.05039L1.40249 8.88053ZM1.46124 8.96606L1.21395 9.13592C1.23429 9.16552 1.25977 9.19124 1.2892 9.21183L1.46124 8.96606ZM1.49999 8.99319L1.32795 9.23896C1.34271 9.24929 1.35837 9.25827 1.37474 9.26579L1.49999 8.99319ZM1.54648 9.01455L1.42123 9.28715C1.4352 9.29357 1.44965 9.29891 1.46445 9.30312L1.54648 9.01455ZM1.60524 9.03125L1.52321 9.31982C1.54989 9.3274 1.5775 9.33125 1.60524 9.33125V9.03125ZM9.39599 9.03125V9.33125C9.42155 9.33125 9.447 9.32798 9.47174 9.32153L9.39599 9.03125ZM9.43646 9.02069L9.51221 9.31097C9.5271 9.30708 9.54166 9.30206 9.55578 9.29594L9.43646 9.02069ZM9.50542 8.99079L9.62474 9.26605C9.63161 9.26307 9.63836 9.25984 9.64499 9.25635L9.50542 8.99079ZM9.54874 8.96803L9.6883 9.23359C9.72196 9.2159 9.75195 9.19198 9.77667 9.16309L9.54874 8.96803ZM9.57299 8.93968L9.35569 8.73285C9.35205 8.73668 9.3485 8.74061 9.34506 8.74463L9.57299 8.93968ZM9.59971 8.91162L9.81701 9.11845C9.83385 9.10076 9.84847 9.08107 9.86054 9.05983L9.59971 8.91162ZM9.61949 8.87681L9.88032 9.02503C9.89254 9.00351 9.90206 8.98056 9.90865 8.9567L9.61949 8.87681ZM9.875 3.7H1.125V4.3H9.875V3.7ZM10.175 8.87066V4H9.575V8.87066H10.175ZM10.1686 8.9379L10.1722 8.91179L9.57783 8.82953L9.57422 8.85564L10.1686 8.9379ZM10.1476 9.02269L10.1602 8.9779L9.58257 8.81563L9.56998 8.86042L10.1476 9.02269ZM10.1256 9.08108L10.1353 9.05808L9.58236 8.82504L9.57266 8.84804L10.1256 9.08108ZM10.0672 9.18296L10.1051 9.12095L9.5931 8.80817L9.55522 8.87018L10.0672 9.18296ZM9.96226 9.31138L10.039 9.22176L9.58342 8.83137L9.50663 8.92099L9.96226 9.31138ZM9.8845 9.37998L9.9205 9.35152L9.54839 8.88084L9.51239 8.9093L9.8845 9.37998ZM9.76383 9.4487L9.83663 9.41092L9.56026 8.87836L9.48746 8.91614L9.76383 9.4487ZM9.64863 9.49856L9.74284 9.45858L9.50846 8.90626L9.41425 8.94623L9.64863 9.49856ZM9.53704 9.53291L9.61421 9.51075L9.44867 8.93404L9.37149 8.95619L9.53704 9.53291ZM9.45685 9.54711L9.49582 9.54166L9.41271 8.94744L9.37375 8.95289L9.45685 9.54711ZM1.5847 9.55H9.4153V8.95H1.5847V9.55ZM1.50418 9.54166L1.54315 9.54711L1.62625 8.95289L1.58729 8.94744L1.50418 9.54166ZM1.36524 9.50358L1.45945 9.53187L1.63202 8.95723L1.53781 8.92894L1.36524 9.50358ZM1.25389 9.45717L1.33106 9.49101L1.57199 8.94151L1.49482 8.90767L1.25389 9.45717ZM1.20546 9.43166L1.22761 9.44408L1.52109 8.92076L1.49894 8.90833L1.20546 9.43166ZM1.1154 9.37037L1.17999 9.41565L1.5244 8.92434L1.45981 8.87906L1.1154 9.37037ZM1.04597 9.30724L1.0751 9.33648L1.50011 8.91296L1.47097 8.88372L1.04597 9.30724ZM0.934181 9.15311L1.01111 9.26522L1.50583 8.92574L1.42891 8.81363L0.934181 9.15311ZM0.904796 9.10176L0.916278 9.1235L1.44681 8.84325L1.43533 8.82151L0.904796 9.10176ZM0.856291 8.97511L0.887562 9.0626L1.45256 8.86067L1.42129 8.77318L0.856291 8.97511ZM0.828191 8.82398L0.841981 8.91778L1.4356 8.8305L1.42181 8.73671L0.828191 8.82398ZM0.825 4V8.78035H1.425V4H0.825ZM9.32499 4.21875V8.85691H9.92499V4.21875H9.32499ZM1.37499 4.51875H9.62499V3.91875H1.37499V4.51875ZM1.67378 8.76526L1.67499 4.21883L1.07499 4.21867L1.07378 8.7651L1.67378 8.76526ZM1.67882 8.78735L1.6715 8.72829L1.07606 8.80206L1.08337 8.86111L1.67882 8.78735ZM1.68293 8.77398L1.66153 8.71768L1.10066 8.93078L1.12205 8.98709L1.68293 8.77398ZM1.70852 8.79621L1.64977 8.71068L1.1552 9.05039L1.21395 9.13592L1.70852 8.79621ZM1.67203 8.74742L1.63328 8.72029L1.2892 9.21183L1.32795 9.23896L1.67203 8.74742ZM1.67173 8.74194L1.62524 8.72058L1.37474 9.26579L1.42123 9.28715L1.67173 8.74194ZM1.68726 8.74268L1.6285 8.72598L1.46445 9.30312L1.52321 9.31982L1.68726 8.74268ZM9.39599 8.73125H1.60524V9.33125H9.39599V8.73125ZM9.36071 8.73041L9.32023 8.74097L9.47174 9.32153L9.51221 9.31097L9.36071 8.73041ZM9.38611 8.71554L9.31715 8.74543L9.55578 9.29594L9.62474 9.26605L9.38611 8.71554ZM9.40917 8.70247L9.36586 8.72523L9.64499 9.25635L9.6883 9.23359L9.40917 8.70247ZM9.34506 8.74463L9.3208 8.77298L9.77667 9.16309L9.80093 9.13474L9.34506 8.74463ZM9.38241 8.70478L9.35569 8.73285L9.7903 9.14652L9.81701 9.11845L9.38241 8.70478ZM9.35865 8.7286L9.33888 8.7634L9.86054 9.05983L9.88032 9.02503L9.35865 8.7286ZM9.33582 8.77701L9.33032 8.79692L9.90865 8.9567L9.91415 8.9368L9.33582 8.77701Z" fill="#B3B3B3"/>
</svg>
