<svg width="15" height="15" viewBox="0 0 15 15" fill="none" xmlns="http://www.w3.org/2000/svg">
<rect x="0.5" y="0.5" width="14" height="14" rx="2.5" fill="#808080" stroke="#808080"/>
<path d="M6.47572 12C7.58649 9.15415 8.49241 7.16798 9.19347 6.0415C9.89454 4.91502 10.83 3.94269 12 3.12451C11.5448 3.0415 11.1624 3 10.8528 3C10.2701 3 9.80235 3.12549 9.44954 3.37648C9.09674 3.62747 8.69499 4.1166 8.24431 4.84387C7.42944 6.17984 6.75797 7.59289 6.22989 9.083C5.76555 8.3834 5.38088 7.90909 5.07587 7.66008C4.77086 7.41107 4.42261 7.28656 4.03111 7.28656C3.71244 7.28656 3.36874 7.41897 3 7.68379C3.64643 8.20949 4.26783 8.87549 4.86419 9.68182L5.13733 10.0435L5.49924 10.5356C5.72686 10.8478 6.05235 11.336 6.47572 12Z" fill="white"/>
</svg>
