<svg width="16" height="16" viewBox="0 0 16 16" fill="none" xmlns="http://www.w3.org/2000/svg">
<path fill-rule="evenodd" clip-rule="evenodd" d="M0.365037 1.15075C0.616089 0.899701 1.02312 0.899701 1.27417 1.15075L7.60909 7.48567L13.8686 1.22613C14.1146 0.980203 14.5133 0.980203 14.7592 1.22613C15.0051 1.47206 15.0051 1.87079 14.7592 2.11671L8.49967 8.37625L14.9112 14.7878C15.1623 15.0389 15.1623 15.4459 14.9112 15.6969C14.6602 15.948 14.2531 15.948 14.0021 15.6969L7.59053 9.28539L1.10359 15.7723C0.857666 16.0183 0.458938 16.0183 0.21301 15.7723C-0.0329176 15.5264 -0.0329175 15.1277 0.21301 14.8817L6.69995 8.3948L0.365037 2.05989C0.113986 1.80884 0.113986 1.4018 0.365037 1.15075Z" fill="#D8D8D8"/>
<mask id="mask0" mask-type="alpha" maskUnits="userSpaceOnUse" x="0" y="0" width="16" height="16">
<path fill-rule="evenodd" clip-rule="evenodd" d="M0.365037 1.15075C0.616089 0.899701 1.02312 0.899701 1.27417 1.15075L7.60909 7.48567L13.8686 1.22613C14.1146 0.980203 14.5133 0.980203 14.7592 1.22613C15.0051 1.47206 15.0051 1.87079 14.7592 2.11671L8.49967 8.37625L14.9112 14.7878C15.1623 15.0389 15.1623 15.4459 14.9112 15.6969C14.6602 15.948 14.2531 15.948 14.0021 15.6969L7.59053 9.28539L1.10359 15.7723C0.857666 16.0183 0.458938 16.0183 0.21301 15.7723C-0.0329176 15.5264 -0.0329175 15.1277 0.21301 14.8817L6.69995 8.3948L0.365037 2.05989C0.113986 1.80884 0.113986 1.4018 0.365037 1.15075Z" fill="white"/>
</mask>
<g mask="url(#mask0)">
<rect x="-0.428467" y="0.571411" width="15.8571" height="15.8571" fill="#182026"/>
</g>
</svg>
