<svg width="27" height="27" viewBox="0 0 27 27" fill="none" xmlns="http://www.w3.org/2000/svg">
<path fill-rule="evenodd" clip-rule="evenodd" d="M5.15475 17.223L5.9475 17.8792L6.87975 18.5355L7.84575 19.1565L8.3625 19.4332L8.9145 19.71L9.46575 19.9508L10.0522 20.193L10.6388 20.4L11.2253 20.5718L11.847 20.7105L12.4672 20.814L13.089 20.8837L13.743 20.9175H14.3295L14.8815 20.8478L15.4335 20.7795L15.9847 20.6407L16.5367 20.5035L17.0887 20.3302L17.6055 20.157L18.1222 19.95L18.6052 19.7092L19.1235 19.467L20.0543 18.9142L20.9543 18.327L21.7792 17.6722L22.572 17.0497L23.2972 16.395L23.9513 15.7725L24.5033 15.1852L25.4355 14.1488L25.9867 13.458L25.4355 12.7673L24.5033 11.7323L23.9513 11.145L23.2972 10.5225L22.572 9.86625L21.7792 9.24525L20.9543 8.62425L20.0543 8.00175L19.1235 7.4505L18.6052 7.20825L18.1222 6.9675L17.6055 6.759L17.0887 6.58725L16.5367 6.414L15.9847 6.27675L15.4335 6.138L14.8815 6.06825L14.3295 6H13.7452L13.0912 6.03375L12.4695 6.1035L11.8492 6.207L11.2275 6.34425L10.641 6.5175L10.0545 6.7245L9.468 6.96675L8.91675 7.2075L8.36475 7.48425L7.848 7.761L6.882 8.382L5.94975 9.03825L5.157 9.6945L4.467 10.2818L3.84525 10.869L3.294 11.4202L2.811 11.9392L2.01825 12.8393L1.5 13.4602L2.01825 14.0828L2.811 14.9827L3.294 15.5002L3.84525 16.053L4.467 16.6403L5.15475 17.223Z" fill="black" fill-opacity="0.01" stroke="#182026"/>
<path fill-rule="evenodd" clip-rule="evenodd" d="M16.0203 13.458L15.985 13.2173L15.9513 13.0103L15.9175 12.768L15.814 12.561L15.745 12.3878L15.6063 12.1808L15.5028 12.0075L15.3318 11.8703L15.193 11.697L15.0205 11.5935L14.8135 11.4563L14.6418 11.3865L14.4333 11.283L14.1925 11.2493L13.9855 11.214L13.7433 11.1803L13.5025 11.214L13.2955 11.2493L13.0533 11.283L12.8463 11.3865L12.6738 11.4563L12.4668 11.5935L12.2943 11.697L12.157 11.8703L11.9845 12.0075L11.881 12.1808L11.7438 12.3878L11.674 12.561L11.5705 12.768L11.5368 13.0103L11.5015 13.2173L11.4678 13.458L11.5015 13.7003L11.5368 13.9073L11.5705 14.148L11.674 14.3565L11.7438 14.5283L11.881 14.7353L11.9845 14.9085L12.157 15.0473L12.2943 15.219L12.4668 15.324L12.6738 15.4613L12.8463 15.531L13.0533 15.6345L13.2955 15.6683L13.5025 15.702L13.7433 15.7373L13.9855 15.702L14.1925 15.6683L14.4333 15.6345L14.6418 15.531L14.8135 15.4613L15.0205 15.324L15.193 15.219L15.3318 15.0473L15.5028 14.9085L15.6063 14.7353L15.745 14.5283L15.814 14.3565L15.9175 14.148L15.9513 13.9073L15.985 13.7003L16.0203 13.458Z" fill="black" fill-opacity="0.01" stroke="#182026"/>
<path fill-rule="evenodd" clip-rule="evenodd" d="M19.6422 13.458L19.6085 12.8708L19.5395 12.2835L19.367 11.6963L19.1945 11.145L18.92 10.626L18.644 10.1423L18.2982 9.69225L17.9187 9.27675L17.5055 8.90175L17.0555 8.556L16.5725 8.27925L16.0557 8.0025L15.5037 7.82925L14.9525 7.6575L14.366 7.58775L13.7442 7.554L13.1577 7.58775L12.5712 7.6575L11.9847 7.82925L11.4335 8.0025L10.9152 8.27925L10.4322 8.556L9.98223 8.90175L9.56748 9.27675L9.18798 9.69225L8.84373 10.1423L8.56773 10.626L8.29173 11.145L8.11923 11.6963L7.94823 12.2835L7.87848 12.8708L7.84473 13.458L7.87848 14.0453L7.94823 14.6325L8.11923 15.2198L8.29173 15.7725L8.56773 16.29L8.84373 16.7738L9.18798 17.2238L9.56748 17.6378L9.98223 18.018L10.4322 18.3638L10.9152 18.6405L11.4335 18.9158L11.9847 19.089L12.5712 19.2623L13.1577 19.332L13.7442 19.3658L14.366 19.332L14.9525 19.2623L15.5037 19.089L16.0557 18.9158L16.5725 18.6405L17.0555 18.3638L17.5055 18.018L17.9187 17.6378L18.2982 17.2238L18.644 16.7738L18.92 16.29L19.1945 15.7725L19.367 15.2198L19.5395 14.6325L19.6085 14.0453L19.6422 13.458Z" fill="black" fill-opacity="0.01" stroke="#182026"/>
</svg>
