<svg width="7" height="10" viewBox="0 0 7 10" fill="none" xmlns="http://www.w3.org/2000/svg">
<path fill-rule="evenodd" clip-rule="evenodd" d="M3.44051 0C1.54315 0 -0.0924596 1.52109 0.00406672 3.392C0.0674351 4.61927 0.916461 5.74436 1.73657 7.10254C2.13433 7.76118 2.51513 8.39371 2.81547 8.89321C3.10288 9.37122 3.79116 9.3794 4.08568 8.90574C4.39898 8.40189 4.79497 7.75888 5.20083 7.08382C6.00896 5.73945 6.78891 4.65727 6.87715 3.392C7.00738 1.52309 5.33843 0 3.44051 0ZM3.44019 5.02837C2.52456 5.02837 1.78229 4.29574 1.78229 3.392C1.78229 2.48826 2.52456 1.75564 3.44019 1.75564C4.35582 1.75564 5.09808 2.48826 5.09808 3.392C5.09808 4.29574 4.35582 5.02837 3.44019 5.02837Z" fill="#B3B3B3"/>
</svg>
