<svg width="23" height="21" viewBox="0 0 60 60" fill="none" xmlns="http://www.w3.org/2000/svg">
<path d="M47.0847 19.6908L30.7952 45.6436C30.6856 45.8181 30.4367 45.8328 30.3074 45.6723L26.3664 40.7799C26.2707 40.6611 26.1011 40.633 25.9723 40.7146L20.1192 44.4199C19.8832 44.5693 19.5891 44.3435 19.6724 44.077L22.2558 35.8101C22.2752 35.7479 22.3144 35.6938 22.3673 35.6558L33.3455 27.7801C33.6347 27.5727 33.386 27.1237 33.0567 27.2588L20.3182 32.485C20.1937 32.5361 20.0504 32.498 19.9677 32.3919L13.7467 24.4082C13.605 24.2264 13.7127 23.9594 13.9409 23.9268L46.7881 19.2343C47.041 19.1982 47.2204 19.4745 47.0847 19.6908Z" fill="white"/>
</svg>
