<svg width="21" height="21" viewBox="0 0 21 21" fill="none" xmlns="http://www.w3.org/2000/svg">
<path d="M14.8125 9.75018H11.25V6.18768C11.25 6.08456 11.1656 6.00018 11.0625 6.00018H9.9375C9.83438 6.00018 9.75 6.08456 9.75 6.18768V9.75018H6.1875C6.08438 9.75018 6 9.83456 6 9.93768V11.0627C6 11.1658 6.08438 11.2502 6.1875 11.2502H9.75V14.8127C9.75 14.9158 9.83438 15.0002 9.9375 15.0002H11.0625C11.1656 15.0002 11.25 14.9158 11.25 14.8127V11.2502H14.8125C14.9156 11.2502 15 11.1658 15 11.0627V9.93768C15 9.83456 14.9156 9.75018 14.8125 9.75018Z" fill="#7CBE73"/>
<path d="M10.5 6.10352e-05C4.70156 6.10352e-05 0 4.70162 0 10.5001C0 16.2985 4.70156 21.0001 10.5 21.0001C16.2984 21.0001 21 16.2985 21 10.5001C21 4.70162 16.2984 6.10352e-05 10.5 6.10352e-05ZM10.5 19.2188C5.68594 19.2188 1.78125 15.3141 1.78125 10.5001C1.78125 5.686 5.68594 1.78131 10.5 1.78131C15.3141 1.78131 19.2188 5.686 19.2188 10.5001C19.2188 15.3141 15.3141 19.2188 10.5 19.2188Z" fill="#7CBE73"/>
</svg>
