<svg width="21" height="21" viewBox="0 0 21 21" fill="none" xmlns="http://www.w3.org/2000/svg">
<path d="M3.5 6.41663L3.96354 17.5415C4.03049 19.1484 5.35266 20.4166 6.96093 20.4166H14.0391C15.6473 20.4166 16.9695 19.1484 17.0365 17.5415L17.5 6.41663" stroke="#182026" stroke-linecap="round"/>
<path d="M14 1.75V1.75C14 1.10567 13.4777 0.583333 12.8333 0.583333L8.16667 0.583333C7.52233 0.583333 7 1.10567 7 1.75V1.75" stroke="#182026" stroke-linecap="round"/>
<line x1="10.7083" y1="7.5" x2="10.7083" y2="17.5833" stroke="#182026" stroke-linecap="round"/>
<line x1="7.20825" y1="8.66663" x2="7.20825" y2="16.4166" stroke="#182026" stroke-linecap="round"/>
<line x1="14.2083" y1="8.66663" x2="14.2083" y2="16.4166" stroke="#182026" stroke-linecap="round"/>
<path d="M2.33333 4.66671V4.66671C2.01117 4.66671 1.75 4.40554 1.75 4.08337V3.93754C1.75 3.53483 2.07646 3.20837 2.47917 3.20837H18.5208C18.9235 3.20837 19.25 3.53483 19.25 3.93754V4.08337C19.25 4.40554 18.9888 4.66671 18.6667 4.66671V4.66671" stroke="#182026" stroke-linecap="round"/>
</svg>
